<?xml version="1.0" encoding="UTF-8" standalone="no"?>
<!-- Created with Inkscape (http://www.inkscape.org/) -->

<svg
   width="235.78116mm"
   height="232.54805mm"
   viewBox="0 0 235.78115 232.54804"
   version="1.1"
   id="svg1"
   sodipodi:docname="detarame_map.svg"
   inkscape:export-filename="detarame_map.svg"
   inkscape:export-xdpi="96"
   inkscape:export-ydpi="96"
   inkscape:version="1.3 (0e150ed6c4, 2023-07-21)"
   xmlns:inkscape="http://www.inkscape.org/namespaces/inkscape"
   xmlns:sodipodi="http://sodipodi.sourceforge.net/DTD/sodipodi-0.dtd"
   xmlns="http://www.w3.org/2000/svg"
   xmlns:svg="http://www.w3.org/2000/svg">
  <sodipodi:namedview
     id="namedview1"
     pagecolor="#ffffff"
     bordercolor="#000000"
     borderopacity="0.25"
     inkscape:showpageshadow="2"
     inkscape:pageopacity="0.0"
     inkscape:pagecheckerboard="true"
     inkscape:deskcolor="#d1d1d1"
     inkscape:document-units="mm"
     inkscape:zoom="3.0680976"
     inkscape:cx="83.602294"
     inkscape:cy="160.19699"
     inkscape:window-width="1811"
     inkscape:window-height="1057"
     inkscape:window-x="-8"
     inkscape:window-y="-8"
     inkscape:window-maximized="1"
     inkscape:current-layer="layer1" />
  <defs
     id="defs1" />
  <path
     id="path5"
     style="fill:#008000;stroke:#ffffff;stroke-width:0"
     inkscape:transform-center-x="5.1018106"
     inkscape:transform-center-y="-5.659276"
     d="m 221.26787,61.496295 c 5.58954,10.052553 9.14325,30.162652 13.94786,40.579315 4.80457,10.41666 -22.53711,6.88121 -24.36397,18.33069 -1.82686,11.44951 15.52725,39.37602 7.05437,48.52961 -8.47285,9.15355 -7.83978,27.47329 -16.35785,34.92298 -8.51804,7.44973 -23.98798,23.04079 -34.67822,27.98273 -10.69024,4.94194 -35.46304,-17.72686 -48.75618,-15.96501 -13.29317,1.76184 -22.367903,13.74031 -34.68816,9.12999 -12.320257,-4.61035 13.117027,-2.54556 2.109218,-9.1289 C 74.527095,209.29435 31.109326,189.35021 23.681303,181.20443 16.25328,173.05862 37.380385,171.44776 33.516379,159.56226 29.652374,147.67676 17.883324,156.50647 18.930628,145.09828 19.977902,133.69008 2.6888949,116.98699 2.4257228,106.2525 2.1625771,95.518039 -3.3928108,94.477816 3.2487059,84.656879 9.890219,74.835968 43.813018,45.256424 51.184803,35.628824 58.556582,26.001213 38.068311,14.61465 48.497294,7.3938507 58.92625,0.17305972 83.197975,14.97273 95.163617,10.782223 107.12925,6.5917115 119.38888,0.96381367 132.58145,0.02116964 145.77402,-0.92147063 160.52456,29.894024 169.2487,37.059085 c 8.72417,7.165088 29.96772,1.046951 38.44422,9.577417 8.47653,8.530458 7.98542,4.80724 13.57495,14.859793 z"
     inkscape:label="path5" />
</svg>
