<?xml version="1.0" encoding="UTF-8" standalone="no"?>
<!-- Created with Inkscape (http://www.inkscape.org/) -->

<svg
   width="45.053398mm"
   height="8.5491018mm"
   viewBox="0 0 45.053398 8.5491018"
   version="1.1"
   id="svg1"
   sodipodi:docname="logo_c.svg"
   inkscape:version="1.3 (0e150ed6c4, 2023-07-21)"
   xmlns:inkscape="http://www.inkscape.org/namespaces/inkscape"
   xmlns:sodipodi="http://sodipodi.sourceforge.net/DTD/sodipodi-0.dtd"
   xmlns="http://www.w3.org/2000/svg"
   xmlns:svg="http://www.w3.org/2000/svg">
  <sodipodi:namedview
     id="namedview1"
     pagecolor="#ffffff"
     bordercolor="#000000"
     borderopacity="0.25"
     inkscape:showpageshadow="2"
     inkscape:pageopacity="0.0"
     inkscape:pagecheckerboard="true"
     inkscape:deskcolor="#d1d1d1"
     inkscape:document-units="mm"
     inkscape:zoom="4.7201646"
     inkscape:cx="95.97123"
     inkscape:cy="-2.8600698"
     inkscape:window-width="1811"
     inkscape:window-height="1057"
     inkscape:window-x="-8"
     inkscape:window-y="-8"
     inkscape:window-maximized="1"
     inkscape:current-layer="layer1" />
  <defs
     id="defs1" />
  <g
     inkscape:label="Layer 1"
     inkscape:groupmode="layer"
     id="layer1"
     style="display:inline;opacity:1"
     transform="translate(-4.7054188,-0.93482907)">
    <path
       style="font-size:11.2889px;font-family:'001Shirokuma';-inkscape-font-specification:'001Shirokuma';white-space:pre;inline-size:156.241;fill:#ffffff;stroke:#1a1a1a;stroke-width:0;stroke-dasharray:none;stroke-dashoffset:0"
       d="m 43.263448,8.7473178 c 0.394114,-0.026222 0.763667,-0.081206 1.133487,-0.1455365 0.726959,-0.1290222 2.560533,-0.7972446 3.116634,-1.1649904 0.271577,-0.1793793 0.50485,-0.3504921 0.675526,-0.5514479 0.157733,-0.1919685 0.224586,-0.3116812 0.162253,-0.3508712 -0.11198,-0.07802 -1.302219,-0.1679646 -1.41766,-0.124471 -0.03884,0.026961 -0.104094,0.09059 -0.169879,0.172914 -0.06607,0.091671 -0.196301,0.2095825 -0.390208,0.33504 -0.400496,0.2505547 -0.903751,0.5449637 -1.340156,0.71966 -0.436406,0.1746965 -1.46482,0.6412802 -2.446954,0.8191811 -0.484728,0.089131 -0.740703,0.1660509 -0.755242,0.2311212 -0.0016,0.056083 0.137343,0.07874 0.416281,0.086666 0.291617,0.00828 0.621805,-0.00104 1.015918,-0.027265 z"
       id="path23" />
    <path
       style="font-size:11.2889px;font-family:'001Shirokuma';-inkscape-font-specification:'001Shirokuma';white-space:pre;inline-size:156.241;fill:#ffffff;stroke:#1a1a1a;stroke-width:0;stroke-dasharray:none;stroke-dashoffset:0"
       d="M 48.741586,5.5448981 C 48.66226,5.4562489 48.522532,5.3334842 48.313086,5.1439423 47.904109,4.7759392 47.833475,4.741534 47.32237,4.7270126 c -0.255553,-0.00726 -0.41972,0.00967 -0.472058,0.051384 -0.06256,0.041421 -0.08485,0.1055842 -0.0458,0.1714907 0.03905,0.065906 0.187773,0.2321244 0.435344,0.5199451 0.495452,0.5648505 0.707661,0.6572756 1.427197,0.5373254 0.113057,-0.018387 0.16601,-0.081679 0.168772,-0.1787963 0.0031,-0.1079078 -0.02484,-0.205896 -0.09424,-0.2834644 z"
       id="path22" />
    <path
       style="font-size:11.2889px;font-family:'001Shirokuma';-inkscape-font-specification:'001Shirokuma';white-space:pre;inline-size:156.241;fill:#ffffff;stroke:#1a1a1a;stroke-width:0;stroke-dasharray:none;stroke-dashoffset:0"
       d="m 44.563245,4.2923997 c -0.06071,-0.023324 -0.213129,-0.060054 -0.457539,-0.099395 -0.519485,-0.079556 -0.601262,-0.081879 -0.711462,0.1957761 -0.109895,0.2668651 -1.05628,1.1687332 -1.314593,1.2585896 -0.05172,0.020129 -0.07278,0.04113 -0.07308,0.051922 -3.07e-4,0.01079 0.02944,0.044035 0.08923,0.099731 0.04987,0.044615 0.233573,0.060635 0.540543,0.058556 0.614554,-0.025737 0.686108,-0.023705 1.135479,-0.356521 0.449373,-0.3328164 0.852237,-0.8289467 0.857762,-1.0231805 0.0031,-0.1079078 -0.01584,-0.1624424 -0.06633,-0.1854762 z"
       id="path21" />
    <path
       style="font-size:11.2889px;font-family:'001Shirokuma';-inkscape-font-specification:'001Shirokuma';white-space:pre;inline-size:156.241;fill:#ffffff;stroke:#1a1a1a;stroke-width:0;stroke-dasharray:none;stroke-dashoffset:0"
       d="m 45.107665,3.583608 -0.891717,-0.025335 0.01981,-0.6965756 c 0.02503,-0.8798847 -0.043,-0.9552007 -0.654979,-0.9450693 l -0.411311,0.00666 -0.08753,1.6669764 -0.591136,-0.016796 -0.461933,0.023568 c -0.201166,0.021803 -0.20273,0.076796 -0.0039,0.1374821 0.09941,0.030343 0.680271,0.05602 1.72254,0.076459 1.042269,0.020435 1.602828,0.054716 1.691697,0.1031001 0.05933,0.029204 0.06857,0.056984 0.0683,0.06615 -0.01029,0.00889 -0.08067,0.016054 -0.240985,0.011499 -0.310599,-0.00883 -0.330898,-2.243e-4 -0.286276,0.1936698 0.02719,0.1016741 0.03888,0.3955381 0.06463,0.9007781 l 0.02418,0.5602323 c 0.0075,0.091939 0.01586,0.1472166 0.02511,0.1749978 0.0079,0.073608 0.08522,0.1767058 0.125037,0.1870101 0.03982,0.010308 0.158744,0.059546 0.2497,0.034613 0.04035,-0.00803 0.161092,-0.022943 0.35172,-0.0267 0.190626,-0.00376 0.321921,-0.03672 0.373059,-0.071957 0.06142,-0.04412 0.100339,-0.3548915 0.107007,-0.9417659 l 0.0063,-0.9262814 c -0.0095,-0.018616 -0.129209,-0.040363 -0.329074,-0.064386 l 1.512914,0.042984 c 1.021971,0.029036 1.643167,0.046685 1.854354,0.025166 0.221206,-0.021234 0.31451,-0.1286574 0.299947,-0.3217015 -0.0082,-0.064443 -0.0072,-0.101105 -0.01638,-0.1288857 -0.009,-0.036947 -0.09785,-0.085335 -0.178002,-0.087613 l -0.300064,-0.026872 c -0.309555,-0.045487 -0.370452,-0.019702 -0.535978,0.1590565 -0.08276,0.089377 -0.164217,0.1329275 -0.254654,0.1395309 L 46.36621,3.7569547 46.37271,3.5278172 C 46.37631,3.3995006 46.372331,3.18841 46.35037,2.9034269 l -0.02861,-0.4044194 1.031988,0.029321 c 0.58112,0.016511 0.962374,0.009 1.124248,-0.041441 0.161872,-0.050437 0.254914,-0.1486963 0.259606,-0.3136747 l 0.006,-0.2108063 -0.451911,0.023853 c -0.30084,6.295e-4 -0.483013,0.059659 -0.565775,0.1490373 -0.0311,0.035809 -0.05191,0.062735 -0.08225,0.071045 -0.04112,0.035524 -0.162653,0.077936 -0.322963,0.073381 l -0.940517,-0.072587 -0.0073,-0.4496769 c -0.0077,-0.4313463 -0.01754,-0.4407964 -0.276743,-0.4940251 -0.129469,-0.031196 -0.299276,-0.054367 -0.5197,-0.06063 -0.210407,-0.00598 -0.331159,0.00893 -0.362,0.03558 -0.03084,0.026642 -0.05232,0.4296388 -0.07448,1.2087034 z"
       id="path20" />
    <path
       id="path18"
       style="font-size:11.2889px;font-family:'001Shirokuma';-inkscape-font-specification:'001Shirokuma';white-space:pre;inline-size:156.241;display:inline;opacity:1;fill:#ffffff;stroke:#1a1a1a;stroke-width:0;stroke-dasharray:none;stroke-dashoffset:0"
       d="m 36.326947,5.6612625 c 0.06075,0.4001178 0.204169,0.3405211 -0.539495,0.4028589 l -0.550431,0.048498 0.0193,-0.3158817 c 0.01954,-0.3080073 0.01906,-0.3237565 0.259683,-0.3705858 0.125031,-0.027502 0.289241,-0.040446 0.511495,-0.05518 l 0.251516,-0.00776 z m -1.039678,1.1650869 c -0.117639,-0.01721 -0.184275,-0.2790767 0.02765,-0.3689539 0.115925,-0.0383 0.319599,-0.079306 0.632018,-0.075046 l 0.53688,0.00428 0.01242,0.4024446 z m -0.280013,1.8577184 c 0.03866,0.00742 0.08639,-0.00267 0.142922,-0.038881 0.10426,-0.046306 0.0848,-0.054326 0.109076,-0.2015913 l -0.08944,-1.3417502 0.651404,-0.063176 c 0.431159,-0.039149 0.661269,-0.054862 0.700461,-0.030218 0.02987,0.033554 0.0093,0.3013655 -0.05235,0.7945281 -0.06192,0.4845525 -0.08247,0.7523638 -0.05261,0.7859178 0.05038,0.076014 0.682595,0.013431 0.872448,-0.061372 0.189855,-0.074802 0.298664,-0.2850041 0.323772,-0.71671 0.01255,-0.2158529 0.04165,-0.5184023 0.03955,-0.8975575 -0.0054,-1.111635 -0.08222,-1.7298109 -0.307246,-1.8607716 -0.175971,-0.097999 -2.746646,0.041585 -2.899432,0.072153 -0.152788,0.030567 -0.170657,0.074209 -0.205863,0.1787194 l -0.04537,0.3978559 c -0.04484,0.4150771 0.03387,2.6534956 0.116239,2.8319477 0.03226,0.1110476 0.09117,0.1523245 0.178097,0.1668819 z" />
    <path
       style="font-size:11.2889px;font-family:'001Shirokuma';-inkscape-font-specification:'001Shirokuma';white-space:pre;inline-size:156.241;fill:#ffffff;stroke:#1a1a1a;stroke-width:0;stroke-dasharray:none;stroke-dashoffset:0"
       d="m 40.77305,6.304939 c 0.352571,-0.7175976 0.494195,-1.1098026 0.519333,-1.8517802 l 0.01953,-0.6125251 -0.327163,-0.01577 c -0.461817,-0.020237 -0.44315,-0.03805 -0.508778,0.3259565 -0.03281,0.182003 -0.07522,0.3643018 -0.118442,0.5207696 -0.0432,0.1564673 -0.09602,0.3132312 -0.139498,0.4610884 -0.08696,0.2957145 -0.185103,0.5400622 -0.240572,0.6107212 -0.028,0.02672 -0.04692,0.035922 -0.07573,0.03681 -0.04799,0.00148 -0.274556,-0.8016872 -0.27801,-0.913623 -0.0034,-0.1119358 -0.323945,-0.2227161 -0.592716,-0.2144299 -0.278371,0.00858 -0.267973,0.034118 -0.261861,0.2321577 0.0032,0.1033254 0.03651,0.2488148 0.09062,0.4453755 0.108483,0.4017314 0.345737,0.9287723 0.449167,1.1669053 0.05172,0.1190665 0.07384,0.2131895 0.05623,0.265444 -0.02535,0.1128238 -0.329088,0.5445012 -0.515221,0.7398496 -0.195468,0.2042549 -0.373329,0.356255 -0.638649,0.4764771 -0.482639,0.2389642 -0.440787,0.3497162 0.135152,0.33196 0.105855,0.00536 0.192247,0.00269 0.259174,-0.00799 0.133589,-0.029974 0.277043,-0.051634 0.390636,-0.1068482 0.104261,-0.046307 0.577036,-0.2935862 0.801566,-0.4901184 l 0.177862,-0.1520003 0.109576,0.1259014 c 0.131165,0.2028034 0.826781,0.6381454 1.115548,0.6550986 0.279169,0.01725 0.61168,-0.1050446 0.636756,-0.2264783 0.0077,-0.06057 -0.02186,-0.085513 -0.09865,-0.083145 -0.06719,0.00207 -0.213305,-0.062373 -0.438334,-0.1933334 -0.43033,-0.2452922 -0.787056,-0.5962772 -0.793965,-0.8201487 -0.0032,-0.1033252 0.08563,-0.3387665 0.266442,-0.7063238 z"
       id="path16" />
    <path
       id="path15"
       style="font-size:11.2889px;font-family:'001Shirokuma';-inkscape-font-specification:'001Shirokuma';white-space:pre;inline-size:156.241;display:inline;opacity:1;fill:#ffffff;stroke:#1a1a1a;stroke-width:0;stroke-dasharray:none;stroke-dashoffset:0"
       d="m 36.233102,3.8734957 c -0.0061,0.1112453 -0.04228,0.1830304 -0.08893,0.2248525 -0.102548,0.094025 -0.35311,0.05127 -0.41431,-0.067994 -0.01114,-0.050137 -0.03652,-0.251273 -0.07583,-0.5933235 -0.07894,-0.6941871 -0.105491,-0.622697 0.277592,-0.6345073 l 0.268161,-0.00827 z m 3.184872,-1.5681174 c -0.01432,-0.4639722 -0.03138,-0.7057494 -0.05115,-0.7253316 -0.01977,-0.019583 -0.135948,-0.056385 -0.328426,-0.080738 l -0.28856,-0.031488 -0.101777,0.7401425 c -0.06999,0.5271478 -0.135417,0.8926188 -0.215073,1.1070897 -0.07965,0.2144707 -0.132762,0.3574515 -0.150049,0.4185602 -0.03489,0.112131 -0.117966,0.2156519 -0.194585,0.2180141 -0.02842,0.010972 -0.104415,0.033507 -0.228606,0.047432 -0.124193,0.013925 -0.257029,0.058404 -0.399442,0.1031782 l -0.161255,0.055452 0.04065,-0.5464348 c 0.01908,-0.313563 0.04127,-0.5262622 0.07585,-0.6484795 0.03457,-0.1222173 0.09047,-0.1744207 0.157519,-0.1764875 0.134081,-0.00414 0.19061,-0.036164 0.246206,-0.098454 0.04633,-0.051908 0.07258,-0.1334849 0.07965,-0.2144707 C 37.896126,2.3825859 37.837106,2.3339255 37.7024,2.3178865 37.452151,2.2852165 37.412285,2.2359665 37.377327,2.0351251 37.342367,1.8342839 37.042051,1.732487 36.718295,1.803044 36.394537,1.873602 36.394849,1.883688 36.4045,2.1963645 l 0.01,0.3227634 -0.708705,0.021849 -0.02787,-0.2818276 c -0.03651,-0.251273 -0.01768,-0.2619498 -0.481112,-0.3688135 -0.463442,-0.1068637 -0.577745,-0.083148 -0.565914,0.3001337 0.0056,0.1815543 -5.58e-4,0.2927997 -0.02804,0.3340308 -0.03613,0.071786 -0.359886,0.1423426 -0.570584,0.1488385 -0.114928,0.00355 -0.161879,0.035278 -0.160634,0.075624 0.01176,0.07031 0.195903,0.1353036 0.551815,0.1748108 0.154169,0.025535 0.260764,0.062633 0.291675,0.1323509 0.0306,0.059632 0.09522,0.2898473 0.145674,0.6820339 l 0.04983,0.3720142 -0.582029,0.088616 c -0.391111,0.062538 -0.600253,0.1194653 -0.607963,0.1802787 -0.05186,0.183326 0.802691,0.227652 2.583116,0.142474 0.650938,-0.030165 1.091178,-0.053832 1.301877,-0.060328 0.220587,0.0033 0.346024,0.029716 0.395155,0.068585 0.04914,0.038869 0.117417,0.077147 0.233277,0.1038635 0.231411,0.043346 0.328117,0.070652 0.539363,-0.2286434 0.211248,-0.2992953 0.448425,-0.6902538 0.508928,-0.9041341 0.02593,-0.091663 0.148254,-0.166106 0.34844,-0.2025656 0.209455,-0.046842 0.544034,-0.077348 1.003739,-0.091521 0.459706,-0.014173 0.727556,-0.032526 0.823017,-0.045566 0.171456,-0.035575 0.82536,-0.5908192 0.123112,-0.6701286 -0.28856,-0.031487 -0.336136,-0.019925 -0.483144,0.186527 -0.09297,0.09373 -0.16741,0.1666965 -0.252982,0.1895265 -0.076,0.022535 -0.305226,0.049794 -0.65927,0.070806 l -0.746088,0.053289 z" />
    <path
       id="path13"
       style="font-size:11.2889px;font-family:'001Shirokuma';-inkscape-font-specification:'001Shirokuma';white-space:pre;inline-size:156.241;display:inline;fill:#ffffff;stroke:#1a1a1a;stroke-width:0;stroke-dasharray:none;stroke-dashoffset:0"
       d="m 28.861109,6.9878823 1.113434,0.083297 c 1.462076,0.1076868 1.231461,0.05575 1.170112,0.6897682 l -0.04452,0.4940324 -0.938946,-0.074448 C 29.541792,8.1289979 29.184136,8.0907389 29.06917,8.0580821 28.97325,8.0330971 28.90879,7.9627611 28.875789,7.8470755 c -0.033,-0.1156864 -0.04355,-0.2905939 -0.03065,-0.5447911 z m 2.383827,-0.05347 -0.279424,-0.047705 c -0.211906,-0.037574 -0.609015,-0.064421 -1.190646,-0.09392 l -0.901529,-0.045723 0.04823,-0.9498951 2.374997,0.1204542 z m 1.12087,-0.262188 C 32.39126,6.1709343 32.40768,5.8475215 32.406105,5.7258495 32.404528,5.6041772 32.361989,5.5209584 32.294103,5.4769847 32.226231,5.4330109 32.032798,5.4069888 31.715459,5.366576 31.39812,5.3261631 30.754031,5.277283 29.783603,5.2118537 l -1.70817,-0.1109525 -0.06137,0.1346919 c -0.05442,0.1512569 -0.111339,2.6531676 -0.0668,2.8499737 0.01921,0.082036 0.10957,0.1433615 0.240429,0.1743168 0.269487,0.062305 1.113543,0.1618559 1.98132,0.2545044 0.433888,0.046325 0.689067,0.083584 0.764714,0.1279516 0.151295,0.088734 1.003973,0.018496 1.156528,-0.071041 0.120657,-0.074942 0.215249,-0.7105296 0.275598,-1.8990716 z" />
    <path
       id="path10"
       style="font-size:11.2889px;font-family:'001Shirokuma';-inkscape-font-specification:'001Shirokuma';white-space:pre;inline-size:156.241;display:inline;fill:#ffffff;stroke:#1a1a1a;stroke-width:0;stroke-dasharray:none;stroke-dashoffset:0"
       d="m 29.613742,3.0030262 0.924973,-0.051311 c 0.05067,0.00674 0.01508,0.2742583 -0.0648,0.7972588 L 30.346849,4.5488492 29.931233,4.4936128 C 29.434521,4.4275987 29.430078,4.3834473 29.535439,3.5915785 Z M 32.920963,2.800834 c 0.206725,-0.054476 0.291901,-0.2017326 0.212939,-0.36814 -0.0795,-0.1556082 -0.775352,-0.2233806 -0.913166,-0.1870628 -0.07805,0.00687 -0.149149,0.068224 -0.231582,0.1614844 -0.08243,0.093261 -0.142752,0.1335091 -0.171265,0.121236 -0.05758,-0.013747 -0.07841,-0.1772063 -0.02321,-0.4992127 L 31.878565,1.5245315 31.595073,1.3694044 C 31.415948,1.2628778 31.214709,1.2093641 31.030649,1.200029 30.643157,1.1803764 30.636577,1.3099648 30.604774,1.9363095 30.572971,2.562654 30.54226,2.5935771 29.9082,2.6480339 l -0.331562,0.026491 0.02248,-0.4427607 C 29.604237,1.9396988 29.55818,1.6991722 29.469528,1.532273 29.311606,1.1994581 29.20724,1.1508574 28.717938,1.2234829 l -0.273985,0.040238 -0.18479,1.3439847 -0.600613,-0.030462 -0.496247,0.01814 c -0.214767,0.021589 -0.23743,0.085399 -0.07604,0.1585463 0.08553,0.036819 0.287879,0.068735 0.636622,0.086422 l 0.261558,0.013266 c 0.05867,-0.00785 0.10656,0.00541 0.163037,0.040749 0.122646,0.071181 0.152257,0.061857 0.181137,0.2582043 l -0.06196,1.2202926 -1.022651,0.056402 c -0.496794,0.028939 -0.847732,0.054447 -1.015706,0.1108887 -0.128677,0.047609 -0.179306,0.088347 -0.123925,0.1452908 0.0742,0.068724 2.207614,0.1336185 6.431467,0.1529591 0.689445,0.00248 0.664534,-0.037393 0.901418,-0.1119947 C 33.605235,4.6699677 33.42087,4.5405118 33.39675,4.4418465 33.35654,4.277404 32.878869,4.2093564 32.687681,4.340409 32.50618,4.4719528 31.990977,4.4751377 31.816606,4.4662939 c -0.08718,-0.00442 -0.164685,-0.00835 -0.22226,-0.0221 -0.04789,-0.013256 -0.0861,-0.02602 -0.085,-0.047619 l 0.0254,-0.1178069 c 0.01298,-0.064302 0.05137,-0.2464123 0.08499,-0.5262053 0.03362,-0.2797926 0.06234,-0.4623933 0.0753,-0.5266971 0.01298,-0.064302 0.01627,-0.1290971 0.02925,-0.1934001 0.01298,-0.064303 0.02486,-0.1070078 0.05446,-0.1163332 0.02961,-0.00933 0.04095,-0.041232 0.06086,-0.051047 0.02961,-0.00933 0.08882,-0.027975 0.215863,-0.043186 0.117345,-0.015702 0.262655,-0.00833 0.446714,10e-4 0.174371,0.00885 0.320229,0.00542 0.418747,-0.02207 z" />
    <path
       style="font-size:11.2889px;font-family:'001Shirokuma';-inkscape-font-specification:'001Shirokuma';white-space:pre;inline-size:156.241;fill:#ffffff;stroke:#1a1a1a;stroke-width:0;stroke-dasharray:none;stroke-dashoffset:0"
       d="M 22.079125,8.589987 C 23.207026,8.0370079 23.684188,7.1302356 23.896259,6.0964415 22.875996,6.0369254 22.023431,6.2638551 20.993098,6.2052391 L 20.979732,6.0557155 C 21.1174,5.892691 21.278504,5.8782898 21.379193,5.8692891 l 3.342899,-0.2988244 c 0.755173,-0.067505 0.755173,-0.067505 0.67988,0.7932956 -0.225437,0.8842704 -0.560477,1.6778594 -1.450019,2.0588131 -0.544884,0.1491861 -1.246416,0.3626153 -1.872828,0.1674136 z"
       id="path8" />
    <path
       style="font-size:11.2889px;font-family:'001Shirokuma';-inkscape-font-specification:'001Shirokuma';white-space:pre;inline-size:156.241;fill:#ffffff;stroke:#1a1a1a;stroke-width:0;stroke-dasharray:none;stroke-dashoffset:0"
       d="m 21.272575,4.5740662 c 0.1598,-0.014285 0.319602,-0.028569 0.479403,-0.042854 l 0.916196,-0.081899 c 0.159801,-0.014285 0.464316,-0.2116427 0.57085,-0.2211658 0.304515,-0.1973579 0.794573,-0.2411645 1.129263,-0.1009458 0.266336,-0.023808 0.1518,0.4968415 -0.114536,0.5206495 -0.159802,0.014285 -0.490058,0.043807 -0.809661,0.072376 l -1.661936,0.1485618 c -0.159801,0.014285 -0.319602,0.028569 -0.494491,-0.125934 z"
       id="path7" />
    <path
       style="font-size:11.2889px;font-family:'001Shirokuma';-inkscape-font-specification:'001Shirokuma';white-space:pre;inline-size:156.241;fill:#ffffff;stroke:#1a1a1a;stroke-width:0;stroke-dasharray:none;stroke-dashoffset:0"
       d="M 27.163741,4.1008491 C 26.752077,4.2777084 26.302599,4.6022216 25.950968,4.3402918 25.497438,4.2310224 24.985584,3.9816092 24.69256,3.7633344 24.009807,3.5272721 23.481323,3.1248119 23.012485,2.7755719 22.71803,3.0397414 22.578313,3.3400558 22.343503,3.6574456 21.759793,4.2336113 21.234687,4.8534324 20.294902,5.2258954 19.878041,5.3549276 19.376298,5.2976577 18.916815,5.0345068 19.168259,4.8701641 19.328479,4.8576475 19.473109,4.701649 20.479164,3.9477894 21.46859,3.0408824 22.133514,1.7252265 l 0.09122,-0.1518263 c 0.667159,0.092581 1.094417,0.059203 1.632257,0.5477521 0.847784,0.7633823 1.929984,1.7013847 3.18434,1.8445594 0.106814,-0.00834 0.122407,0.1351374 0.122407,0.1351374 z"
       id="path6" />
    <path
       style="font-size:11.2889px;font-family:'001Shirokuma';-inkscape-font-specification:'001Shirokuma';white-space:pre;inline-size:156.241;fill:#ffffff;stroke:#1a1a1a;stroke-width:0;stroke-dasharray:none;stroke-dashoffset:0"
       d="m 13.859368,8.3174564 c 0.982735,-1.064819 1.466479,-2.3702719 1.401578,-3.7965215 -0.02489,-0.5470547 -0.02489,-0.5470547 0.462098,-0.5701795 0.573394,-0.027228 0.573394,-0.027228 0.463126,0.6633042 l 0.02801,0.6154366 c 0.578728,0.089998 1.175686,0.061652 1.71766,0.035916 0.212077,-0.01007 0.603626,0.1181859 0.823558,0.1077423 0.102111,-0.00485 0.218301,0.1266932 0.224525,0.2634569 -0.08551,0.5425076 -0.05796,1.1481753 -0.13562,1.6903098 -0.06374,1.0211804 -0.642024,1.459818 -1.549907,1.2288106 0.635498,-0.9112715 0.476635,-1.9806214 0.430404,-2.99658 -0.455573,0.021633 -1.03519,-0.087903 -1.498618,-0.065897 -0.09129,0.4155128 -0.175182,0.8208838 -0.263367,1.3047782 -0.195481,0.5477293 -0.546726,1.1322248 -1.074476,1.4705631 -0.316265,0.1422871 -0.701146,0.1605632 -1.028967,0.04886 z"
       id="path5" />
    <path
       style="font-size:11.2889px;font-family:'001Shirokuma';-inkscape-font-specification:'001Shirokuma';white-space:pre;inline-size:156.241;fill:#ffffff;stroke:#1a1a1a;stroke-width:0;stroke-dasharray:none;stroke-dashoffset:0"
       d="m 12.695655,3.491289 c 0.146471,-0.00695 0.139793,-0.1537062 0.3595,-0.164139 l 5.450821,-0.2588324 c 0.14647,-0.00695 0.292942,-0.01391 0.422975,-0.3820989 0,0 0.129332,-0.1532093 0.275803,-0.1601645 l 0.575422,-0.027324 c 0.372856,0.1293629 0.519328,0.1224077 0.535766,0.483641 0.0067,0.1467509 -0.277533,0.3525665 -0.49724,0.3629993 -0.721893,0.034279 -1.663494,0.078991 -2.374926,0.1127734 l -3.651316,0.173383 c -0.439415,0.020865 -0.721894,0.034279 -1.088073,0.051667 z"
       id="path4" />
    <path
       style="font-size:11.2889px;font-family:'001Shirokuma';-inkscape-font-specification:'001Shirokuma';white-space:pre;inline-size:156.241;fill:#ffffff;stroke:#1a1a1a;stroke-width:0;stroke-dasharray:none;stroke-dashoffset:0"
       d="m 15.919951,2.4833232 c -0.763741,0.036267 -1.207076,-0.259444 -1.237382,-0.9254677 -0.01387,-0.3047906 0.124896,-0.4810738 0.407377,-0.4944875 0.33479,-0.015898 0.478505,0.1469722 0.771447,0.1330618 0.33152,0.1426388 0.491861,0.4404742 0.514977,0.9484583 0.01438,0.3160791 -0.278559,0.3299895 -0.456419,0.3384351 z"
       id="path3" />
    <path
       style="font-size:11.2889px;font-family:'001Shirokuma';-inkscape-font-specification:'001Shirokuma';white-space:pre;inline-size:156.241;fill:#ffffff;stroke:#1a1a1a;stroke-width:0;stroke-dasharray:none;stroke-dashoffset:0"
       d="m 11.280807,6.7433248 c 0,-0.041695 0.07483,-0.2188926 0.233821,-0.5420198 0.355407,-0.7192188 0.523757,-1.4697081 0.542464,-2.2306205 0.0094,-0.4482086 0,-0.6775248 -0.02806,-0.7087952 -0.04676,-0.052118 -0.654698,-0.1042346 -0.720167,-0.041695 -0.02806,0.031271 -0.08418,0.041695 -0.158999,0.041695 -0.158998,0 -0.177703,0.052117 -0.233821,0.3648211 L 10.80381,4.2729648 C 10.71029,4.8358317 10.579342,5.409122 10.541932,5.5237801 l -0.0187,0.041695 c -0.02806,0 -0.08417,-0.093811 -0.13094,-0.2605866 C 10.345525,5.138112 10.270702,4.9817601 10.186527,4.8566786 9.9994703,4.5856686 10.027529,4.5752453 9.5505346,4.637786 9.0735404,4.7003267 8.9800121,4.6899041 9.1764217,5.2527701 c 0.093528,0.27101 0.2338202,0.6045608 0.4302296,0.9902286 0.2057624,0.3960915 0.2992908,0.6149841 0.2992908,0.6671015 0,0.1250815 -0.8791663,1.0631929 -1.0755757,1.1465805 -0.1028812,0.041695 -0.1496449,0.093811 -0.1589979,0.1250815 -0.028061,0.1042347 0.093528,0.1563519 0.3647603,0.1667753 0.5237588,0.020846 0.766932,-0.093811 1.1878102,-0.4586322 0.215114,-0.1876223 0.346054,-0.2814334 0.402171,-0.2918568 0.04678,-0.010424 0.121585,0.010425 0.233821,0.072964 0.205762,0.1667753 1.094279,0.5107495 1.253278,0.5420199 0.158998,0.031271 1.234573,-0.052118 1.234573,-0.1980458 0,-0.072964 -0.02806,-0.1146581 -0.07483,-0.1146581 -0.308643,0 -1.992152,-0.9693817 -1.992152,-1.1570039 z"
       id="path2" />
    <path
       style="font-size:11.2889px;font-family:'001Shirokuma';-inkscape-font-specification:'001Shirokuma';white-space:pre;inline-size:156.241;fill:#ffffff;stroke:#1a1a1a;stroke-width:0;stroke-dasharray:none;stroke-dashoffset:0"
       d="m 8.8509553,2.1483614 c 0,0.8642058 -0.1327699,1.4768071 -0.4187348,1.783108 C 8.2688113,4.1064983 8.2075333,4.2268308 8.258599,4.2705879 8.3505167,4.3581026 8.9428726,4.3034057 9.0960678,4.2596483 9.259477,4.2268304 9.3411811,4.1502554 9.545442,3.9314693 9.7394897,3.7236223 9.8824726,3.4829574 9.97439,3.187596 l 0.142982,-0.4375724 0.735339,-0.043757 c 1.266417,-0.076575 1.971118,-0.1422112 2.134525,-0.175029 0.316605,-0.065636 0.316605,-0.1093932 0.285966,-0.3281795 l -0.02042,-0.251604 -0.500439,-0.021879 c -0.224686,-0.010939 -0.377882,-0.010939 -0.428949,0 -0.06127,0.010939 -0.112342,0.065637 -0.153196,0.1750291 -0.06128,0.098454 -0.163407,0.1750289 -0.30639,0.2078468 C 11.720826,2.345269 11.353155,2.367148 10.7608,2.4327834 L 10.127583,2.4984185 10.239927,1.2075797 9.9743882,1.1638225 C 9.4943754,1.0872474 9.1573448,1.0763078 9.0041487,1.2732156 8.9428735,1.3497906 8.8918051,1.4373053 8.881592,1.5466984 8.861164,1.6451522 8.8509495,1.8529991 8.8509495,2.1483605 Z"
       id="path1" />
    <path
       style="font-size:11.2889px;font-family:'001Shirokuma';-inkscape-font-specification:'001Shirokuma';white-space:pre;inline-size:156.241;fill:#ffffff;stroke:#1a1a1a;stroke-width:0;stroke-dasharray:none;stroke-dashoffset:0"
       d="M 7.2839351,1.2589317 6.9116564,1.1934337 C 6.8469123,1.1825175 6.7821682,1.1606847 6.7174241,1.1497684 6.6607728,1.1388521 6.6041219,1.1279357 6.5312846,1.1061031 6.3937034,1.0624379 6.3370524,1.0842705 6.2884942,1.2261826 c -0.024279,0.065498 -0.00809,0.3820716 0.016186,0.9497205 l 0.040466,0.8514735 H 5.5682159 c -0.1780462,0.03275 -0.2185113,0.087331 -0.1294882,0.196494 0.048558,0.03275 0.2104185,0.054583 0.5098601,0.08733 l 0.4451156,0.043665 V 3.8897664 L 5.535844,3.9334318 5.495378,4.3919174 C 5.4630068,4.9049848 5.1878443,5.7127929 4.969333,5.9420358 4.8560308,6.0621154 4.8155658,6.149446 4.8155658,6.1931114 c 0.0081,0.1855775 0.67172,0.1091632 0.9711615,-0.2074103 0.2994416,-0.3165733 0.6150692,-1.2772103 0.6231623,-1.4627878 0.00809,-0.08733 0.016186,-0.021834 0.040465,0.1964938 0.1133021,1.0043023 0.1133021,2.3360941 0.1537672,3.9626266 0.00809,0.3165736 0.016186,0.5021512 0.024279,0.5567328 0.00809,0.076414 0.048559,0.1200796 0.1294882,0.1309959 C 6.9197493,9.4025114 7.4538881,9.1514358 7.4781674,9.02044 L 7.4619797,4.8285705 7.5995606,5.079646 c 0.1294887,0.2401592 0.1537673,0.2729081 0.5260464,0.2729081 0.3884645,0 0.4208368,0.021834 0.1942319,-0.6658959 C 8.0932347,3.9989297 8.05277,4.009846 7.7452355,3.9770971 7.4457935,3.9443478 7.4377004,3.9334314 7.3891427,3.6277746 7.3405871,3.3112011 7.3405871,3.2566195 7.6804909,3.2566195 c 0.1780464,0 0.299442,-0.010916 0.3803721,-0.021834 C 8.5383507,3.1037903 8.554537,2.7435515 8.0689565,2.6671373 7.785701,2.623472 7.7533287,2.623472 7.6238407,2.7981335 7.4862597,2.9837111 7.3810504,3.0710417 7.3324925,2.6016396 7.308211,2.3723968 7.283934,2.0885723 7.283934,1.7283336 Z"
       id="text1" />
  </g>
</svg>
