<?xml version="1.0" encoding="UTF-8" standalone="no"?>
<!-- Created with Inkscape (http://www.inkscape.org/) -->

<svg
   width="34.638073mm"
   height="5.4473829mm"
   viewBox="0 0 34.638073 5.4473829"
   version="1.1"
   id="svg1"
   xmlns="http://www.w3.org/2000/svg"
   xmlns:svg="http://www.w3.org/2000/svg">
  <defs
     id="defs1" />
  <g
     id="layer1"
     transform="translate(-13.297428,-14.415462)">
    <path
       style="font-size:3.64451px;font-family:'001Shirokuma';-inkscape-font-specification:'001Shirokuma';white-space:pre;inline-size:116.483;fill:#ffffff;stroke:#ffffff;stroke-width:0"
       d="m 43.737292,19.334166 c 0.2082,-0.05904 0.436478,-0.08575 0.652845,-0.08578 0.401345,0.0141 0.537601,-0.108592 0.524953,-0.523044 l -0.0038,-0.124981 c -0.05221,-0.459336 -0.02738,-0.690559 -0.383074,-0.666535 -0.355839,0.01737 -0.72459,0.02862 -1.072259,0.105156 -0.606533,0.143628 -0.60573,0.169928 -0.509763,0.812306 0.09455,0.59632 0.211213,0.665192 0.791112,0.482877 z m 0.404824,-0.288913 c -0.47342,0.126391 -0.447187,0.151935 -0.534188,-0.405117 -0.01617,-0.111452 -0.01953,-0.223286 -0.03054,-0.374394 0.264617,-0.08708 0.552658,-0.240747 0.588731,0.107132 0.03186,0.209738 0.01934,0.427416 0.02557,0.631349 -0.03098,0.02729 -0.03695,0.04065 -0.04967,0.04103 z"
       id="path22" />
    <path
       style="font-size:3.64451px;font-family:'001Shirokuma';-inkscape-font-specification:'001Shirokuma';white-space:pre;inline-size:116.483;fill:#ffffff;stroke:#ffffff;stroke-width:0"
       d="m 43.339763,17.56843 c 0.396992,0.08006 1.065969,0.105756 1.291571,-0.2172 0.0971,-0.154405 -0.4332,-0.223829 -0.544229,-0.10849 -0.147973,0.155958 -0.293596,0.180166 -0.471413,0.19217 -0.114239,0.01001 -0.235239,0.0072 -0.356037,0.01087 8.03e-4,0.02632 0.0014,0.04604 -0.0043,0.06599 0.03239,0.01876 0.05883,0.05089 0.08447,0.05669 z"
       id="path21" />
    <path
       style="font-size:3.64451px;font-family:'001Shirokuma';-inkscape-font-specification:'001Shirokuma';white-space:pre;inline-size:116.483;fill:#ffffff;stroke:#ffffff;stroke-width:0"
       d="m 44.265591,16.835613 c 0.05622,-0.03463 0.125349,-0.06308 0.161894,-0.116886 0.165033,-0.222332 -0.388495,-0.218608 -0.613963,-0.09978 -0.118797,0.06948 -0.218909,0.125202 -0.352223,0.135848 -0.07628,0.0023 -0.15219,0.01778 -0.259665,0.04084 0.208469,0.158249 0.857768,0.164778 1.063962,0.03996 z"
       id="path20" />
    <path
       style="font-size:3.64451px;font-family:'001Shirokuma';-inkscape-font-specification:'001Shirokuma';white-space:pre;inline-size:116.483;fill:#ffffff;stroke:#ffffff;stroke-width:0"
       d="m 43.092945,16.153669 c 0.502266,-0.01533 0.998372,-0.02396 1.499038,-0.09181 0.437483,-0.05287 0.239654,-0.487996 -0.12964,-0.285768 -0.394318,0.216159 -0.716023,0.100858 -1.53176,0.270626 8.03e-4,0.02632 0.0014,0.04604 0.0085,0.07217 0.05126,0.01162 0.103125,0.04294 0.153794,0.03483 z"
       id="path19" />
    <path
       style="font-size:3.64451px;font-family:'001Shirokuma';-inkscape-font-specification:'001Shirokuma';white-space:pre;inline-size:116.483;fill:#ffffff;stroke:#ffffff;stroke-width:0"
       d="m 45.98004,19.456165 c 0.68284,-0.444174 0.834672,-1.153081 0.940348,-1.936007 l -0.640683,-0.102295 c -0.226165,0.690374 -0.398865,1.449269 -1.404836,1.335314 0.623738,-0.800189 0.611981,-1.735164 0.734205,-2.662077 l -0.395771,-0.103187 c -0.001,-0.03347 0.0032,-0.05949 0.0073,-0.08549 0.162212,-0.0074 0.326509,-0.02784 0.48458,-0.0093 0.42815,0.06176 0.859501,0.14381 1.288674,0.199165 0.07536,0.01202 0.178928,-0.03143 0.244799,-0.08088 0.103487,-0.08345 0.588082,-0.09273 0.660456,0.01879 0.08286,0.126539 0.01498,0.229002 -0.110607,0.248942 -0.191493,0.02941 -0.394514,0.05032 -0.585022,0.03322 -0.260642,-0.02162 -0.516079,-0.07584 -0.798738,-0.120938 l -0.10742,1.035916 c 0.295216,0.04714 0.584152,0.09326 0.878344,0.146815 0.640682,0.102295 0.646964,0.103291 0.529598,0.757719 -0.03943,0.246973 -0.103991,0.489935 -0.193663,0.728889 -0.18766,0.529898 -0.600854,0.6972 -1.109521,0.695967 -0.141301,-0.0026 -0.286805,-0.01913 -0.43335,-0.02919 z"
       id="path18" />
    <path
       style="font-size:3.64451px;font-family:'001Shirokuma';-inkscape-font-specification:'001Shirokuma';white-space:pre;inline-size:116.483;fill:#ffffff;stroke:#ffffff;stroke-width:0"
       d="m 46.61167,14.993661 c 0.264003,0.211295 0.273417,0.48031 0.02685,0.718576 -0.02373,0.02365 -0.05279,0.04372 -0.07968,0.04931 -0.122314,0.04418 -0.498935,-0.227749 -0.541256,-0.391787 -0.04289,-0.140565 0.116391,-0.454084 0.266581,-0.471367 0.105393,-0.008 0.219559,0.0617 0.32748,0.09528 z"
       id="path17" />
    <path
       style="font-size:3.64451px;font-family:'001Shirokuma';-inkscape-font-specification:'001Shirokuma';white-space:pre;inline-size:116.483;fill:#ffffff;stroke:#ffffff;stroke-width:0"
       d="m 44.133416,15.423938 c 0.139872,-0.0043 0.181161,-0.110879 0.157677,-0.25503 -0.06532,-0.472105 -0.747007,-0.497394 -0.931049,-0.06377 -0.131442,0.28057 0.302498,0.320003 0.773376,0.318803 z"
       id="path16" />
    <path
       style="font-size:3.64451px;font-family:'001Shirokuma';-inkscape-font-specification:'001Shirokuma';white-space:pre;inline-size:116.483;fill:#ffffff;stroke:#ffffff;stroke-width:0"
       d="m 41.345727,16.804104 -0.02074,-0.08519 c -0.01554,-0.05898 -0.02591,-0.07862 -0.09328,-0.08518 -0.611532,-0.15726 -0.580437,-0.07207 -0.580437,0.373486 v 0.327618 l -0.305766,-0.03276 c -0.145111,-0.01965 -0.274672,-0.01965 -0.388687,-0.0064 -0.108825,0.01312 -0.165839,0.04588 -0.165839,0.07862 0,0.03275 0.04664,0.05243 0.145109,0.07862 0.09328,0.01312 0.155474,0.02621 0.186569,0.03275 0.06218,0.02621 0.124383,0.07207 0.10365,0.104833 -0.0051,0.02621 -0.01037,0.04587 -0.0051,0.08518 -0.05183,0.294857 -0.269488,0.63558 -0.48197,0.766627 -0.0051,0.0064 -0.01555,0.0064 -0.02074,0.01312 -0.2073,0.137607 -0.160658,0.216227 0.145107,0.216227 0.305767,0 0.544162,-0.216227 0.715183,-0.648683 0.02591,-0.05243 0.04147,-0.07208 0.04663,-0.07208 0.0051,0 0.0051,0.229332 -0.0051,0.694549 l -0.02074,0.786283 0.15029,0.03275 c 0.181388,0.05898 0.476789,0.01965 0.518248,-0.11794 0.01555,-0.06554 0.04146,-0.2752 0.05701,-0.622475 0.02074,-0.353826 0.03628,-0.524189 0.05182,-0.524189 0.02074,0 0.06218,0.04586 0.129557,0.137591 0.14511,0.19657 0.409415,0.314512 0.673722,0.340723 0.264307,0.01965 0.279855,-0.09173 0.04147,-0.203123 -0.243576,-0.111396 -0.466422,-0.412798 -0.466422,-0.674894 0,-0.111396 -0.09847,-0.170366 -0.305766,-0.17691 h -0.124329 l 0.124382,-0.03932 c 0.08811,-0.03275 0.243576,-0.05243 0.456058,-0.05243 0.217665,0 0.373139,-0.01965 0.461242,-0.05897 0.08811,-0.03275 0.134747,-0.104834 0.15029,-0.190019 0.02074,-0.05898 0.0051,-0.09829 -0.02074,-0.117941 -0.0311,-0.02621 -0.09847,-0.03932 -0.202117,-0.04587 -0.202115,-0.02621 -0.243575,-0.0064 -0.33686,0.08518 -0.09847,0.09829 -0.155474,0.124504 -0.362774,0.124504 h -0.248758 z"
       id="path15" />
    <path
       style="font-size:3.64451px;font-family:'001Shirokuma';-inkscape-font-specification:'001Shirokuma';white-space:pre;inline-size:116.483;fill:#ffffff;stroke:#ffffff;stroke-width:0"
       d="m 41.28768,15.727289 c 0.01712,0.151438 0.264878,0.513834 0.445704,0.66071 0.180824,0.14688 0.431388,0.264957 0.655371,0.309355 0.223208,0.03752 0.478339,-0.01922 0.517047,-0.10725 0.0013,-0.04198 -0.01296,-0.06128 -0.06707,-0.05517 -0.05406,0.0061 -0.536375,-0.225205 -0.695296,-0.339698 -0.0754,-0.07513 -0.153912,-0.177806 -0.230305,-0.31557 -0.164804,-0.274175 -0.158011,-0.26797 -0.428275,-0.237422 -0.138123,0.01561 -0.201859,0.04372 -0.197189,0.08503 z"
       id="path14" />
    <path
       style="font-size:3.64451px;font-family:'001Shirokuma';-inkscape-font-specification:'001Shirokuma';white-space:pre;inline-size:116.483;fill:#ffffff;stroke:#ffffff;stroke-width:0"
       d="m 40.822597,15.576664 c -0.05439,-0.03463 -0.108788,-0.0485 -0.169229,-0.0485 -0.05439,0 -0.108788,-0.0068 -0.169229,-0.02771 -0.06045,-0.02771 -0.102753,-0.02077 -0.126914,0.01387 -0.02418,0.02771 -0.06045,0.117771 -0.114842,0.263241 -0.108789,0.290947 -0.429118,0.685806 -0.682964,0.838208 -0.126915,0.06929 -0.187361,0.131628 -0.163184,0.187034 0.03627,0.103914 0.404943,0.180117 0.640656,0.02771 0.241757,-0.145464 0.640656,-0.616533 0.767579,-0.893628 0.06648,-0.131609 0.0967,-0.221674 0.0967,-0.249383 0,-0.03463 -0.02418,-0.06928 -0.07857,-0.110834 z"
       id="path13" />
    <path
       style="font-size:3.64451px;font-family:'001Shirokuma';-inkscape-font-specification:'001Shirokuma';white-space:pre;inline-size:116.483;fill:#ffffff;stroke:#ffffff;stroke-width:0"
       d="m 39.059774,14.99851 c -0.0033,-0.04275 -0.01232,-0.07154 -0.0219,-0.08612 -0.02421,-0.0294 -0.113811,-0.07568 -0.189644,-0.08586 l -0.439441,-0.06765 -0.03038,0.744497 c -0.03551,0.992861 -0.02828,0.815603 -0.400362,0.843033 -0.182961,-4.6e-4 -0.275171,0.01719 -0.276618,0.05263 -0.0012,0.02837 0.04277,0.07277 0.132085,0.126134 0.08931,0.05337 0.179496,0.08545 0.280401,0.103779 l 0.196453,0.04352 0.01293,0.305925 c 0.0062,0.220423 0.01411,0.52614 0.01343,0.916736 l 0.0062,0.596838 -0.119019,0.05197 c -0.0677,0.03986 -0.170058,0.05698 -0.302858,0.07286 -0.133094,0.02298 -0.190067,0.04907 -0.181653,0.09201 0.01145,0.0928 0.287368,0.182183 0.451194,0.153363 l 0.127721,-0.01609 -0.01876,0.958036 0.181809,0.02872 c 0.246906,0.05269 0.256765,0.0602 0.378527,-0.183415 0.05568,-0.118472 0.100156,-0.336819 0.123039,-0.648384 l 0.04475,-0.474023 0.172371,-0.11371 c 0.110026,-0.08073 0.231373,-0.189421 0.296316,-0.286202 0.04204,-0.03378 0.06377,-0.06844 0.06464,-0.0897 0.0017,-0.04254 -0.374498,-0.164418 -0.470754,-0.04762 -0.02204,0.04173 -0.0432,0.06216 -0.06377,0.06843 -0.0056,0.01399 -0.01074,0.01378 -0.01016,-4.15e-4 -0.01464,-0.01482 -0.0096,-0.263172 -3.64e-4,-0.738647 l 0.01964,-0.730727 0.470021,-0.05895 c 0.08771,-0.03192 0.103803,-0.05259 0.108721,-0.173114 0.0049,-0.120544 -0.294335,-0.26059 -0.355226,-0.263074 -0.03045,-0.0012 -0.07191,0.01836 -0.119309,0.05905 l -0.0996,0.07406 -0.0183,-0.299041 c -0.0071,-0.199153 1.17e-4,-0.376414 0.0167,-0.531986 0.01624,-0.148495 0.02534,-0.247543 0.02708,-0.290086 0.0014,-0.03544 -0.0018,-0.0782 -0.0058,-0.106777 z"
       id="path12" />
    <path
       style="font-size:3.64451px;font-family:'001Shirokuma';-inkscape-font-specification:'001Shirokuma';white-space:pre;inline-size:116.483;fill:#ffffff;stroke:#ffffff;stroke-width:0"
       d="m 40.248579,14.884626 c 0.187339,-0.0029 1.863871,0.137525 1.900665,0.171595 0.01855,0.02743 0.0333,0.200402 0.05032,0.518836 0.01253,0.02752 0.115362,0.03285 0.326759,0.02267 l 0.319969,-0.02571 0.0071,-0.325733 c 0.0026,-0.221741 -0.01755,-0.353067 -0.06675,-0.407732 -0.104342,-0.102318 -2.474555,-0.148882 -3.077806,-0.0703 l -0.181083,0.01666 0.0051,0.332473 c 0.003,0.193943 0.02358,0.352974 0.06165,0.470166 0.07604,0.227458 0.0822,0.234289 0.311838,0.230746 0.108775,-0.0017 0.175147,-0.0095 0.193061,-0.02375 0.02407,-0.0072 0.02775,-0.159767 0.01107,-0.457429 l -0.02507,-0.449944 z"
       id="path11" />
    <path
       style="font-size:3.64451px;font-family:'001Shirokuma';-inkscape-font-specification:'001Shirokuma';white-space:pre;inline-size:116.483;fill:#ffffff;stroke:#ffffff;stroke-width:0"
       d="m 33.149219,19.225231 c 0.281347,0.191133 0.953706,0.125176 1.440688,-0.107028 0.03417,-0.03053 0.169433,-0.126764 0.310343,-0.09287 0.134426,0.03355 0.675718,0.219865 0.790009,0.265259 0.05714,0.02269 0.140541,0.04038 0.249817,0.05953 0.488519,0.08597 0.900477,0.148156 1.252834,0.116081 0.169712,-0.0164 0.236609,-0.05158 0.207172,-0.105167 -0.02479,-0.02087 -0.184013,-0.0753 -0.491706,-0.144571 -0.615384,-0.13856 -0.976939,-0.288785 -1.340489,-0.633864 l -0.129316,-0.124138 0.171728,-0.282442 c 0.114113,-0.181823 0.181108,-0.333845 0.207824,-0.462171 l 0.03574,-0.173257 0.524157,0.02955 c 0.291199,0.01642 0.499004,0.01514 0.624873,-0.02969 0.244902,-0.08357 0.459101,-0.428529 0.550082,-0.890798 0.09136,-0.468738 0.05516,-0.633071 -0.22946,-0.765968 -0.284632,-0.132896 -0.737511,-0.275282 -1.203062,-0.308024 -0.03847,-0.0086 -0.05926,-0.100715 -0.05658,-0.262856 0.0053,-0.324285 -0.04673,-0.437574 -0.235396,-0.545587 l -0.188659,-0.108012 c -0.03773,-0.0216 -0.07582,-0.03673 -0.10819,-0.03855 -0.03883,-0.0022 -0.07191,0.0089 -0.07874,0.01503 -0.0205,0.01831 -0.06517,0.119675 -0.07064,0.216734 l -0.05845,0.69131 -0.18338,0.02861 c -0.203157,0.03399 -1.563176,-0.02322 -1.646207,-0.04738 -0.07655,-0.02379 -0.07692,-0.01734 -0.108276,0.07829 l -0.02809,0.498272 c -0.02262,0.401206 -0.01425,0.713277 0.02474,0.942684 l 0.05293,0.327566 0.241887,0.08504 c 0.165334,0.06126 0.268501,0.07356 0.309519,0.03692 0.04102,-0.03664 0.119396,-0.04521 0.235877,-0.03864 0.116117,0.01296 0.252012,0.02062 0.388993,0.0089 0.14346,-0.01138 0.234421,-0.01275 0.286189,-0.0098 0.05178,0.0029 0.07118,0.004 0.08377,0.01113 -0.0029,0.05178 -0.238357,0.427991 -0.300977,0.502362 -0.03454,0.03701 -0.0802,0.04092 -0.136614,0.0053 -0.05641,-0.03563 -0.18474,-0.06236 -0.390721,-0.09343 -0.405489,-0.06181 -0.439302,-0.03777 -0.148395,0.329197 0.145459,0.183473 0.223376,0.298229 0.227657,0.33742 0.02151,0.07911 -0.151937,0.277064 -0.298687,0.346691 -0.146743,0.06962 -0.614216,0.186085 -0.763051,0.177693 -0.07118,-0.004 -0.110745,0.0068 -0.112933,0.04557 -0.0022,0.03883 0.0287,0.06655 0.09124,0.109006 z m 2.941856,-3.359092 0.632341,0.0681 -0.02865,0.277526 c -0.01733,0.193772 -0.06792,0.398651 -0.111598,0.597431 -0.08807,0.410499 -0.09599,0.436019 -0.409522,0.470274 l -0.228676,0.02606 0.03538,-0.166792 c 0.03173,-0.102074 0.05817,-0.340778 0.07933,-0.716101 z m -0.756849,0.06769 -0.04486,0.335036 c -0.034,0.25775 -0.07732,0.450056 -0.124883,0.603173 l -0.06674,0.262396 -0.383617,0.01082 c -0.259936,0.0048 -0.390452,0.01694 -0.415244,-0.0039 -0.037,-0.03454 -0.02182,-0.994452 0.01892,-1.141461 0.0299,-0.06972 0.05834,-0.113558 0.09752,-0.117851 z"
       id="path10" />
    <path
       style="font-size:3.64451px;font-family:'001Shirokuma';-inkscape-font-specification:'001Shirokuma';white-space:pre;inline-size:116.483;fill:#ffffff;stroke:#ffffff;stroke-width:0"
       d="m 31.916641,17.694493 c -0.06806,0.06247 -0.256483,0.116613 -0.551479,0.155261 l -0.442765,0.05134 -0.0082,-0.198553 c -0.01874,-0.111941 -0.04286,-0.183869 -0.07949,-0.215513 -0.093,-0.02932 -0.717453,-0.103104 -0.778722,-0.04754 -0.03442,0.0213 -0.023,0.299281 -0.0021,0.808904 l 0.03129,0.761126 -0.571018,0.02347 -0.0069,-0.682575 c -0.01216,-0.125452 -0.03012,-0.217538 -0.116358,-0.253772 -0.08622,-0.03624 -0.178684,-0.05233 -0.376078,-0.04421 l -0.317216,0.01304 0.02176,0.529479 c 0.01061,0.258121 0.0027,0.410925 -0.01647,0.458124 -0.01924,0.0472 -0.09597,0.07025 -0.215816,0.07518 l -0.309639,0.02601 c -0.160774,0.03975 -0.201446,0.0812 -0.128238,0.144486 0.04394,0.03798 0.368212,0.02465 1.008093,-0.04144 0.625784,-0.06551 1.034932,-0.07568 1.226632,-0.05042 0.191697,0.02526 0.325916,0.02639 0.395324,-0.003 0.06942,-0.02938 0.463369,-0.06546 1.168329,-0.09443 0.697912,-0.02869 1.106243,-0.05875 1.217678,-0.09646 0.07646,-0.02967 0.109526,-0.08405 0.07806,-0.162323 -0.06266,-0.149901 -0.09193,-0.175219 -0.366874,-0.163918 -0.133951,0.0055 -0.232367,0.01616 -0.281441,0.02485 -0.104933,0.0242 -0.154277,0.02623 -0.214185,0.114876 -0.03252,0.06764 -0.09434,0.109948 -0.16457,0.119474 l -1.220669,0.02365 0.02762,-0.186766 c 0.01516,-0.146477 0.03006,-0.29957 0.02435,-0.438558 l -0.0073,-0.178695 c -0.0014,-0.03308 0.01194,-0.05354 0.07646,-0.02967 0.06453,0.02387 1.496398,-0.187479 1.600511,-0.231524 0.103572,-0.0573 0.05447,-0.221018 -0.05264,-0.249762 -0.171371,-0.046 -0.306123,-0.06034 -0.40482,-0.05628 -0.09165,0.0038 -0.175146,0.03372 -0.243198,0.09619 z"
       id="path9" />
    <path
       style="font-size:3.64451px;font-family:'001Shirokuma';-inkscape-font-specification:'001Shirokuma';white-space:pre;inline-size:116.483;fill:#ffffff;stroke:#ffffff;stroke-width:0"
       d="m 30.104551,15.522514 c -0.0088,-0.05239 -0.05077,-0.103282 -0.08429,-0.114986 -0.02663,-0.0053 -0.073,-0.01 -0.165758,-0.01902 -0.178926,-0.01843 -0.360925,0.04246 -0.392086,0.08344 -0.01857,0.02722 -0.03746,0.04784 -0.04286,0.07447 -0.005,0.0332 -0.0091,0.09275 -0.01154,0.185219 l -0.0083,0.257639 -0.314256,0.05358 -0.322009,0.02754 -0.126615,-0.917894 0.509284,0.03012 c 0.621788,0.0383 3.200509,-0.122656 3.428591,-0.185558 0.110755,-0.03132 0.193993,-0.08778 0.250607,-0.149674 0.112352,-0.143521 0.05823,-0.174109 -0.08267,-0.227202 -0.140883,-0.0531 -0.306948,-0.07868 -0.451786,-0.07224 -0.07899,0.0035 -0.149365,0.05282 -0.211107,0.147934 l -0.09232,0.149236 -4.081835,0.181657 0.009,0.942919 c 0.0078,0.619738 -0.03182,1.063476 -0.08595,1.329752 -0.05413,0.266274 -0.122866,0.500216 -0.193079,0.701239 -0.0702,0.201025 -0.144533,0.30988 -0.202904,0.332265 -0.116744,0.04479 -0.07798,0.174989 0.0483,0.195751 0.245939,0.04184 0.411115,0.04769 0.521864,0.01636 0.214623,-0.06892 0.357255,-0.273168 0.459801,-0.488824 0.108833,-0.222533 0.201867,-0.503733 0.238284,-0.723043 l 0.04724,-0.272563 0.276513,-0.01231 c 0.204092,-0.0091 0.28163,-0.04551 0.337365,-0.127164 0.03144,-0.03437 0.05004,-0.0616 0.05661,-0.06189 0.0065,-2.89e-4 0.01817,0.111341 0.02754,0.322011 l 0.0041,0.389019 0.159183,0.01931 c 0.140004,0.03336 0.265688,0.04096 0.377316,0.02938 0.105044,-0.01118 0.163412,-0.03367 0.168541,-0.06687 0.02341,-0.06702 0.05205,-0.609208 0.0519,-0.760923 -0.007,-0.158009 -2.45e-4,-0.151705 0.08178,-0.08939 0.05532,0.05691 0.17528,0.08455 0.346448,0.07693 l 0.02377,0.04472 -0.07373,0.122019 c -0.04916,0.08134 -0.05998,0.134602 -0.02617,0.15288 0.02062,0.01886 0.09392,0.03541 0.238767,0.02896 0.269927,-0.01201 0.288507,-0.03924 0.367647,-0.187879 l 0.09144,-0.16898 0.07129,0.860988 0.257348,0.0018 c 0.38931,0.0025 0.437878,-0.09205 0.434051,-0.474485 -0.002,-0.191214 0.01199,-0.323768 0.02222,-0.390191 0.01242,-0.165463 0.05704,-0.20044 0.113523,-0.117201 0.0281,0.03834 0.134015,0.04682 0.331524,0.03803 0.20409,-0.0091 0.315425,-0.02725 0.333419,-0.06762 0.01798,-0.04039 0.0171,-0.06013 -0.01582,-0.05866 -0.02634,0.0012 -0.100227,-0.02851 -0.229117,-0.10854 -0.128905,-0.08003 -0.242575,-0.114549 -0.341622,-0.116729 -0.198095,-0.0044 -0.205558,-0.02383 -0.219172,-0.18155 l -0.01993,-0.150829 0.340588,-0.05475 c 0.196631,-0.02853 0.32713,-0.06073 0.411543,-0.09088 0.07783,-0.02986 0.115281,-0.07769 0.112644,-0.136947 -0.0026,-0.05925 -0.05737,-0.102989 -0.171032,-0.137516 -0.213897,-0.06304 -0.496406,-0.03728 -0.568672,0.11765 -0.07227,0.154932 -0.17936,0.120131 -0.189615,-0.1103 l -0.0088,-0.197514 -0.311189,-0.02574 c -0.417111,-0.03422 -0.409354,-0.0082 -0.39734,0.26176 0.0062,0.138265 0.0035,0.22413 -0.0086,0.251054 -0.01172,0.03349 -0.05063,0.04843 -0.103283,0.05077 -0.04608,0.0021 -0.08016,-0.02283 -0.08222,-0.0689 -0.0083,-0.03922 -0.05619,-0.07665 -0.149235,-0.09232 -0.09964,-0.01535 -0.218724,-0.02324 -0.343812,-0.01767 -0.125097,0.0056 0.0172,-0.01357 -0.01938,0.05405 -0.03658,0.06761 -0.107239,0.110316 -0.199403,0.114417 -0.197508,0.0088 -0.177466,0.01441 -0.195767,-0.248557 z m 1.128536,0.707992 c 0.008,0.03262 -0.0572,0.04872 -0.182289,0.05429 -0.255589,0.03777 -0.263634,0.0052 -0.293765,0.21757 -0.03043,0.205851 -0.07475,0.247403 -0.26729,0.07126 -0.09626,-0.08806 0.02875,-0.198775 -0.08405,-0.213557 -0.225601,-0.02955 -0.296123,-0.131949 -0.189181,-0.24885 0.05033,-0.05502 0.523532,0.0093 0.802391,0.04965 0.139419,0.02019 0.206435,0.04359 0.21419,0.06963 z m -2.470814,0.110357 c -0.0015,-0.03291 0.0033,-0.07271 0.0091,-0.09274 0.0056,-0.02003 0.01143,-0.0401 0.01798,-0.04039 l 0.03951,-0.0018 c 0.06042,0.02371 0.172644,0.02529 0.343812,0.01767 0.164584,-0.0073 0.251056,0.0086 0.2534,0.06128 0.0023,0.05268 -0.05603,0.07506 -0.174238,0.0869 -0.236424,0.02374 -0.243593,0.01084 -0.336918,0.285456 -0.04682,0.134017 -0.07681,0.201317 -0.103138,0.202489 -0.01974,8.79e-4 -0.02957,-0.07125 -0.0366,-0.229254 z"
       id="path8" />
    <path
       style="font-size:3.64451px;font-family:'001Shirokuma';-inkscape-font-specification:'001Shirokuma';white-space:pre;inline-size:116.483;fill:#ffffff;stroke:#ffffff;stroke-width:0"
       d="m 26.92933,19.188397 0.01033,-0.119298 0.296879,-3.428045 c 0.03045,-0.351595 0.03045,-0.351595 -0.28959,-0.379311 l -1.703064,-0.147491 c -0.428625,-0.03712 -0.71899,0.05793 -1.039029,0.03021 -0.108591,-0.0094 -0.118378,0.103607 -0.237287,0.213496 l -0.114728,1.324758 -0.175626,2.027944 c -0.01686,0.194633 -0.02719,0.313924 0.189982,0.332731 0.102868,0.0089 0.310251,0.140728 0.413121,0.149637 0.0743,0.0064 0.295538,-0.08826 0.398407,-0.07936 0.68634,0.05312 1.42303,0.123239 2.142019,0.06531 z m -2.228806,-2.7865 c 0.02719,-0.313923 0.04731,-0.546226 -0.02838,-0.86906 0.0098,-0.113009 0.122986,-0.223393 0.231574,-0.213989 l 1.634485,0.141551 -0.08808,1.017113 c -0.605789,-0.05246 -1.218101,-0.02959 -1.749596,-0.07562 z m 1.546401,1.158664 c -0.497203,-0.04306 -1.112778,0.01749 -1.747142,-0.03745 0.02664,-0.307645 0.0473,-0.546227 0.180622,-0.888913 0.531495,0.04603 1.137282,0.09849 1.644272,0.02854 z m -1.759001,1.296218 0.104397,-1.205466 1.634486,0.141551 -0.09787,1.130124 c -0.612313,0.02287 -1.109516,-0.02018 -1.641011,-0.06621 z"
       id="path7" />
    <path
       style="font-size:3.64451px;font-family:'001Shirokuma';-inkscape-font-specification:'001Shirokuma';white-space:pre;inline-size:116.483;fill:#ffffff;stroke:#ffffff;stroke-width:0"
       d="m 18.351821,19.444392 c 0,0.007 0.007,0.02823 0.02116,0.04234 0.04234,0.02116 0.08466,0.03527 0.176383,0.05645 0.09173,0.04939 0.204612,0.02823 0.324557,-0.05645 0.134044,-0.09173 0.218722,-0.148177 0.296332,-0.162271 0.141111,-0.02823 0.627946,-0.635 0.740835,-0.804333 0.112885,-0.169337 0.155224,-0.310444 0.0635,-0.373945 -0.03527,-0.03527 -0.155224,-0.08466 -0.331612,-0.16227 -0.359833,-0.162271 -0.500944,-0.176384 -0.507998,0.183449 -0.007,0.352777 -0.246945,0.818445 -0.536223,1.023054 -0.03527,0.02116 -0.05645,0.04939 -0.08466,0.07057 l -0.141111,0.09877 c -0.02116,0.03527 -0.02823,0.04939 -0.02116,0.05645 z"
       id="path6" />
    <path
       style="font-size:3.64451px;font-family:'001Shirokuma';-inkscape-font-specification:'001Shirokuma';white-space:pre;inline-size:116.483;fill:#ffffff;stroke:#ffffff;stroke-width:0"
       d="m 21.223969,17.907614 c -0.01269,0.0456 -0.03118,0.135436 -0.0279,0.300117 0.01631,0.823405 0.431846,1.260138 1.347588,1.312128 0.351293,0.03233 0.64218,-0.02421 0.872664,-0.16964 0.08465,-0.04521 0.145828,-0.100215 0.172386,-0.148509 0.02098,-0.04001 0.01847,-0.08983 -0.0147,-0.11214 -0.05503,-0.06119 -0.353793,-0.08218 -0.462497,0.06115 -0.108509,0.107337 -0.545034,0.228147 -0.735685,0.171766 -0.183728,-0.05773 -0.213923,-0.102167 -0.262392,-0.351501 -0.03138,-0.08734 -0.04163,-0.250662 -0.02653,-0.469225 0.01368,-0.225476 6.04e-4,-0.366687 -0.01845,-0.427673 -0.0631,-0.102731 -0.558862,-0.28668 -0.711233,-0.25706 -0.06927,0.01347 -0.120627,0.045 -0.133319,0.0906 z"
       id="path5" />
    <path
       style="font-size:3.64451px;font-family:'001Shirokuma';-inkscape-font-specification:'001Shirokuma';white-space:pre;inline-size:116.483;fill:#ffffff;stroke:#ffffff;stroke-width:0"
       d="m 20.737413,17.95439 c 0.0111,-0.07681 -0.326027,-0.161161 -0.378013,-0.09739 -0.05098,0.05679 -0.280368,1.249808 -0.281622,1.40646 -0.0032,0.07084 0.03072,0.132755 0.07657,0.160778 0.135625,0.04811 0.517597,0.16746 0.534588,0.148535 0.153648,-0.619395 0.281152,-1.107119 0.388459,-1.455185 -0.225397,-0.0682 -0.338055,-0.12726 -0.339994,-0.163179 z"
       id="path4" />
    <path
       style="font-size:3.64451px;font-family:'001Shirokuma';-inkscape-font-specification:'001Shirokuma';white-space:pre;inline-size:116.483;fill:#ffffff;stroke:#ffffff;stroke-width:0"
       d="m 20.592161,15.786184 c -0.0051,-0.105718 -0.01381,-0.175925 -0.03133,-0.203348 -0.03571,-0.06892 -0.195374,-0.131934 -0.245231,-0.15781 -0.0165,-0.0062 -0.0384,-0.01231 -0.05996,-0.01128 -0.01617,7.73e-4 -0.02123,0.008 -0.02626,0.0154 l -0.05053,0.07307 c -0.0549,0.09446 -0.03774,0.340858 0.04211,0.428867 0.05053,0.03997 0.06332,0.08173 0.05356,0.103399 3.34e-4,0.007 -0.0576,0.03806 -0.159667,0.05002 l -1.312376,0.119239 c -0.112842,0.0124 -0.171122,0.03644 -0.175837,0.05079 -0.0047,0.01437 -0.004,0.02846 -0.0034,0.04255 0.0081,0.05613 0.101388,0.08699 0.279924,0.09258 l 0.238155,0.0098 c -0.01717,0.205664 -0.0074,0.410041 0.03942,0.598522 0.09363,0.376959 0.356051,0.555134 0.784526,0.591165 0.433866,0.03578 1.686958,-0.08063 1.943637,-0.135284 0.133727,-0.02758 0.157985,-0.198266 0.08522,-0.2513 -0.120593,-0.03663 -0.789919,-0.02582 -2.002587,0.03214 l -0.08455,-0.864783 c 0.234786,-0.06067 0.584103,-0.09856 1.053,-0.120969 0.46351,-0.02215 1.105562,-0.06533 1.253104,-0.03001 0.289692,0.07091 0.492814,-0.08713 0.457444,-0.262027 -0.03536,-0.174894 -0.04783,-0.209623 -0.222322,-0.243665 -0.179878,-0.03379 -0.19571,-0.02596 -0.286324,0.112568 -0.03942,0.07958 -0.08051,0.123936 -0.139117,0.140866 l -1.419507,0.05212 z"
       id="path3" />
    <path
       style="font-size:3.64451px;font-family:'001Shirokuma';-inkscape-font-specification:'001Shirokuma';white-space:pre;inline-size:116.483;fill:#ffffff;stroke:#ffffff;stroke-width:0"
       d="m 20.753789,14.96777 c -0.274961,0.01064 -0.500841,0.0124 -0.663273,0.01152 -0.16948,-4.17e-4 -0.247851,-0.01866 -0.228338,-0.06178 0.0034,-0.09193 -0.294286,-0.306352 -0.45917,-0.370581 -0.07919,-0.03931 -0.129086,-0.0515 -0.171393,-0.04986 -0.05641,0.0022 -0.06942,0.03093 -0.102213,0.09575 -0.02033,0.02196 -0.02602,0.0575 -0.02439,0.09979 l 0.01337,0.345464 -0.479418,0.01855 c -0.606325,0.02346 -0.915175,0.07071 -0.911628,0.162364 0.0035,0.09166 0.308345,0.122234 0.90762,0.09905 l 0.51467,-0.01991 0.02449,0.267364 c 0.0116,0.119591 0.03584,0.196316 0.06514,0.223428 0.03797,0.06915 0.291012,0.221746 0.480279,0.18618 0.189263,-0.03557 0.206096,0.0344 0.213334,-0.325991 l 0.0053,-0.409733 1.332503,-0.05155 0.01227,0.317262 c 0.01494,0.0206 0.01549,0.0347 0.0236,0.06263 0.0078,0.02087 0.01549,0.0347 0.02984,0.04122 0.01439,0.0064 0.01549,0.0347 0.02333,0.05559 0.0078,0.02087 0.02957,0.03416 0.04394,0.04067 l 0.129085,0.0515 c 0.243801,0.09648 0.319446,0.04414 0.348654,-0.295924 0.01487,-0.162967 0.03953,-0.255718 0.102435,-0.272274 l 1.132367,-0.114429 c 0.280101,-0.06026 0.348151,-0.126439 0.196003,-0.226469 -0.144824,-0.09324 -0.492743,-0.143328 -0.595497,-0.06168 -0.102759,0.08165 -0.630707,0.123248 -0.687928,0.104286 -0.04258,-0.0053 -0.06563,-0.05396 -0.07542,-0.124175 -0.03339,-0.132872 -0.128863,-0.228022 -0.308115,-0.298755 -0.344141,-0.134973 -0.466681,-0.01724 -0.447314,0.483321 z"
       id="path2" />
    <path
       style="font-size:3.64451px;font-family:'001Shirokuma';-inkscape-font-specification:'001Shirokuma';white-space:pre;inline-size:116.483;fill:#ffffff;stroke:#ffffff;stroke-width:0"
       d="m 16.20567,16.464077 0.74633,0.05499 c 0.366876,-0.296806 0.786156,-0.25956 0.870967,-0.151715 0.106613,0.0079 0.09866,0.10252 0.08859,0.222419 -0.0074,0.08835 -0.121984,0.175155 -0.215279,0.168281 l -0.41981,-0.03093 -1.086176,-0.08003 -0.08374,0.997094 0.852949,0.06285 c 0.111992,0.103503 0.119942,0.0088 0.233227,0.01719 0.217095,-0.269744 0.43571,-0.158387 0.735574,-0.136292 0.119944,0.0088 0.21248,0.10455 0.203999,0.205524 0,0 -0.107909,0.0873 -0.235269,0.166808 l -0.206573,-0.01522 -1.599277,-0.117842 c -0.05989,0.71311 -0.300078,1.177996 -0.935317,1.556622 -0.201196,0.08042 -0.461076,0.06128 -0.662273,0.141693 0.504536,-0.578749 0.552236,-1.146715 0.697998,-1.7646 -0.638955,-0.135974 -1.284208,-0.0625 -1.894161,-0.304292 l 0.0074,-0.08835 c 0.626382,0.04616 1.255736,0.162001 1.902111,0.209628 l 0.08374,-0.997096 -0.846284,-0.06236 c -0.299865,-0.0221 -0.526429,-0.03879 -0.844997,-0.157513 l 0.0074,-0.08835 1.699232,0.125206 0.04187,-0.498546 c 0.01949,-0.232039 0.224592,-0.199343 0.224592,-0.199343 l 0.384145,0.136257 c 0.09996,0.0074 0.1909,0.12202 0.18295,0.216675 0.09254,0.09571 0.08406,0.196686 0.06604,0.41125 z"
       id="path1" />
    <path
       style="font-size:3.64451px;font-family:'001Shirokuma';-inkscape-font-specification:'001Shirokuma';white-space:pre;inline-size:116.483;fill:#ffffff;stroke:#ffffff;stroke-width:0"
       d="m 13.961623,15.413049 c 0.211666,0 0.416278,0 0.635001,-0.105837 0.684388,-0.105838 1.213554,-0.211669 1.799167,-0.536223 0.211666,-0.148177 0.635,0 0.881945,0.112884 0.09877,0 0.09877,0.105838 0,0.211667 l -0.119951,0.105838 c -0.867834,0.3175 -1.76389,0.663222 -2.77989,0.423332 -0.09877,0 -0.3175,-0.105838 -0.416277,-0.105838 z"
       id="text1" />
  </g>
</svg>
